<?xml version="1.0" encoding="iso-8859-1"?>
<!-- Generator: Adobe Illustrator 19.0.0, SVG Export Plug-In . SVG Version: 6.00 Build 0)  -->
<svg version="1.1" id="Layer_1" xmlns="http://www.w3.org/2000/svg" xmlns:xlink="http://www.w3.org/1999/xlink" x="0px" y="0px"
	 viewBox="0 0 512 512" style="enable-background:new 0 0 512 512;" xml:space="preserve">
<g>
	<g>
		<path d="M506.298,202.547c-3.639-17.048-27.89-17.747-32.446-0.868c-15.349,56.82-67.255,98.886-128.808,98.843
			c-73.591-0.013-133.552-59.854-133.565-133.565c-0.042-61.556,42.024-113.458,98.84-128.808
			c16.83-4.546,16.229-28.799-0.869-32.446C292.244,2.03,274.371-0.001,256,0C114.796,0.031,0.031,114.79,0,256
			c0.031,141.21,114.796,255.969,256,256c141.204-0.031,255.969-114.79,256-256C512.001,237.628,509.971,219.756,506.298,202.547z"
			/>
	</g>
</g>
<g>
</g>
<g>
</g>
<g>
</g>
<g>
</g>
<g>
</g>
<g>
</g>
<g>
</g>
<g>
</g>
<g>
</g>
<g>
</g>
<g>
</g>
<g>
</g>
<g>
</g>
<g>
</g>
<g>
</g>
</svg>
